<svg width="540" height="160" viewBox="0 0 540 160" fill="none" xmlns="http://www.w3.org/2000/svg">
<g clip-path="url(#clip0)">
<path d="M132.316 8.78167e-06C82.0234 8.78167e-06 46 31.9298 46 78.0117C46 130.76 88.3392 160 137.111 160H406.936C456.76 160 494.772 124.444 494.655 78.3626C494.538 40.3509 465.415 -0.11695 410.094 8.78167e-06H132.316Z" fill="white"/>
<path d="M121.906 70.6432L116.994 88.5379C116.76 89.5906 115.942 91.228 117.813 92.3976L117.579 94.8537C111.029 94.2689 103.778 93.9181 100.386 94.7368L95.9415 94.2689L111.731 38.1286C112.199 36.3742 112.55 34.9707 112.433 33.3333C112.316 32.8654 111.731 32.1637 111.38 32.0467L111.731 29.8245C115.006 30.0584 121.906 31.111 128.222 29.8245L133.368 30.2923C133.368 30.2923 132.199 34.5029 131.497 36.959L123.661 65.0292C128.924 61.1695 138.865 56.1403 144.83 55.4385L149.509 38.1286C149.977 36.6081 150.561 33.5672 150.327 32.7485C149.977 32.3976 149.509 32.1637 149.158 31.9298L149.626 29.5906C152.433 29.9415 161.322 30.6432 166.702 29.5906L171.146 30.0584C171.146 30.0584 169.977 34.2689 169.275 36.7251L161.439 64.4444L155.006 88.1871C154.889 89.3567 153.719 90.8771 155.825 92.1637L155.357 94.6198C149.041 93.8011 141.556 93.6842 138.164 94.5029L133.836 94.035L142.374 63.3918C137.111 63.6257 127.988 66.1988 121.906 70.6432Z" fill="#DF4B3E"/>
<path d="M406.468 55.6724C409.158 59.766 408.222 64.9122 407.17 68.8888H374.538C372.901 74.2689 371.497 81.8713 376.643 86.7836C381.673 90.7602 388.807 88.8888 393.018 86.7836C395.591 85.614 397.93 84.2105 400.152 82.2222C401.088 83.1578 403.193 85.614 403.193 85.614C394.889 92.1637 383.778 98.1286 370.678 95.5555C364.246 94.7368 357.93 89.5906 356.175 84.6783C352.784 72.1637 360.269 60.1169 372.082 53.6841C381.088 49.0058 399.333 46.3157 406.468 55.6724ZM385.298 54.6198C379.216 55.7894 376.643 61.0526 375.591 64.7953C380.62 64.7953 386.468 64.7953 389.275 64.7953C390.327 62.69 391.38 59.4151 390.327 57.076C389.275 55.2046 387.754 54.3859 385.298 54.6198Z" fill="#DF4B3E"/>
<path d="M219.918 57.4269C226.117 66.5497 221.088 81.8713 210.21 89.7076C203.544 94.6199 195.825 96.6082 186.351 96.3743C181.088 96.3743 175.24 94.5029 171.497 91.462C166.702 87.8363 164.83 80.2339 165.532 76.9591C167.403 64.0936 178.982 52.3977 194.889 50.1754C203.427 49.0058 214.772 50.6433 219.918 57.4269ZM197.345 54.269C194.187 55.3216 191.029 58.2456 188.69 62.924C184.947 70.5263 181.789 80.7018 183.544 88.7719C184.596 91.5789 187.287 92.2807 189.275 91.8129C194.889 90.5263 200.386 81.1696 202.608 74.8538C203.778 71.1111 206.702 61.6374 203.427 55.7895C202.14 54.269 200.386 53.5672 197.345 54.269Z" fill="#DF4B3E"/>
<path d="M278.865 46.6667C279.918 44.6784 276.292 42.3392 273.368 42.3392C262.257 41.9883 255.357 53.5673 249.275 61.2866L249.041 61.4035C249.041 61.4035 250.327 56.3743 251.029 53.9182L247.52 53.3334C240.62 54.7369 233.018 53.4503 231.38 53.3334L231.029 55.3217C233.368 56.4913 232.199 58.1287 231.965 60L222.608 94.269L226.936 94.7369C228.222 94.1521 233.953 94.1521 235.591 94.1521L244.129 94.8538L244.363 92.6316C242.725 91.579 243.31 89.9415 243.661 88.3041C243.661 88.3041 248.69 68.3041 250.795 65.1462C255.591 54.503 269.509 49.0059 266.819 58.7135C267.053 58.8304 267.52 59.2983 267.52 59.2983C268.105 58.9474 276.994 50.2924 278.865 46.6667Z" fill="#DF4B3E"/>
<path d="M433.485 65.1462L440.386 40.3509C441.088 37.7778 442.257 33.5672 442.257 33.5672L437.696 33.0994C430.444 34.3859 425.064 33.2164 420.62 32.8655L420.269 35.3216C420.503 35.3216 420.971 35.6725 421.439 36.2573C422.023 36.8421 420.971 40.1169 420.62 41.6374L405.883 94.3859L410.678 94.8538C414.07 94.0351 421.088 94.152 427.404 94.9707L427.871 92.8655C426.351 91.9298 426.585 90.4093 426.819 89.5906L433.485 65.1462Z" fill="#DF4B3E"/>
<path d="M283.427 53.8011C280.386 55.6725 268.807 62.1052 267.52 62.573C267.403 62.9239 267.287 64.2105 267.287 64.2105C268.105 64.5613 268.573 65.3801 268.222 66.6666C265.883 75.4385 260.62 94.152 260.62 94.152L265.064 94.7368C266.585 94.035 273.485 93.9181 282.257 94.8537L282.608 92.6315L281.906 92.0467C280.971 91.228 281.439 90.0584 281.906 87.9532L286 73.2163C287.287 69.5906 287.871 61.7543 295.24 57.1929C296.643 56.6081 297.813 56.4912 298.632 56.6081C303.427 57.1929 301.088 63.5087 300.503 65.8479L293.485 91.345L292.667 94.152L296.994 94.7368C300.971 93.6842 308.456 94.2689 314.187 94.8537L314.538 92.6315L314.07 92.2806C313.134 91.6959 313.018 90.7602 313.953 87.9532C313.953 87.9532 318.281 71.5789 319.918 66.0818C320.971 62.2222 325.532 55.2046 331.614 56.7251C333.368 57.3099 334.538 59.1812 333.485 63.2748L324.947 94.2689L329.392 94.7368C334.187 93.5672 341.556 94.3859 346.585 94.8537L346.936 92.6315C346.585 92.3976 346.234 92.1637 346 91.8128C345.298 90.7602 346.117 88.8888 346.468 87.0175C346.468 87.0175 352.55 66.0818 352.316 60.8187C352.199 58.4795 351.497 55.6725 348.924 53.0994C346.351 50.2923 342.608 49.8245 340.503 49.4736C330.795 48.304 322.374 54.5029 319.099 58.9473C319.099 58.9473 318.398 55.9064 317.462 54.6198C316.175 52.6315 313.368 50.8771 310.795 50.0584C300.269 47.2514 294.772 52.9824 289.158 58.9473L290.444 54.8537C291.38 51.1111 289.392 50.1754 283.427 53.8011Z" fill="#DF4B3E"/>
<path d="M281.439 51.1111C289.626 43.3918 297.93 34.9707 301.088 26.9005C302.257 23.9766 302.959 20.1169 302.257 16.0234C301.205 9.47364 298.164 8.88885 296.292 9.23973C295.357 9.35669 293.368 10.4093 293.018 12.7485C291.965 10.7602 288.573 9.35668 286 11.5789C286 11.5789 283.778 13.4503 284.947 17.1929C282.257 16.2573 279.45 18.1286 278.865 20.5848C278.515 23.1579 279.684 25.497 282.959 26.3157C286.819 27.2514 291.965 32.2807 287.053 41.9883C285.883 44.6783 281.322 49.5906 280.854 50.2924C280.386 50.6432 280.854 51.6959 281.439 51.1111Z" fill="#4CAF69"/>
<path d="M322.959 119.415C324.596 113.333 322.608 111.228 320.386 111.579C318.982 111.93 317.462 112.865 316.409 115.205C314.655 118.947 312.667 123.509 314.07 126.667C314.772 128.421 317.345 127.953 318.398 127.018C319.45 126.082 321.906 124.211 322.725 120.585L322.959 119.415ZM325.064 111.462L327.17 104.211C327.403 103.509 327.871 101.988 327.52 101.754C327.287 101.52 327.053 101.287 327.053 101.287L327.17 100.117C329.158 100.234 331.614 100.819 334.889 100.234L336.994 100.468C336.994 100.468 336.409 102.456 336.175 103.743L332.667 116.842L329.509 128.304C329.392 128.772 329.275 129.474 329.977 129.825L329.743 130.877C326.819 130.526 323.661 130.409 322.14 130.76H320.503L321.789 125.731C320.269 129.006 316.76 131.111 314.304 131.111C311.731 131.111 309.977 130.409 308.456 128.889C306.936 127.251 306.117 123.392 306.351 121.403C307.287 115.088 311.38 109.708 318.982 108.655C320.737 108.421 324.129 109.006 325.064 111.462Z" fill="#DF4B3E"/>
<path d="M336.76 126.082C339.099 127.602 341.205 128.304 344.48 128.421C348.105 128.655 350.444 127.602 350.912 125.614C351.731 122.456 337.696 121.871 339.567 115.672C340.269 113.099 342.023 111.462 344.713 110.175C347.52 108.889 350.444 108.655 353.135 108.655C355.825 108.655 358.515 109.006 361.088 109.591L359.801 113.45C358.398 112.281 356.058 111.579 353.719 111.579C352.667 111.579 348.573 111.696 348.105 113.918C347.754 115.439 350.678 116.14 351.848 116.491C353.602 117.076 355.474 117.661 356.877 118.713C358.749 120 360.035 121.637 359.333 123.977C357.462 130.292 349.86 131.579 344.246 131.579C341.322 131.579 338.281 130.877 335.474 130.292L336.76 126.082Z" fill="#DF4B3E"/>
<path d="M299.918 112.164C302.842 116.608 300.503 124.094 295.24 127.953C291.965 130.409 288.339 131.345 283.778 131.228C281.205 131.228 278.398 130.292 276.643 128.772C274.304 127.017 273.485 123.275 273.836 121.754C274.772 115.439 280.269 109.708 287.871 108.655C291.965 108.07 297.462 108.889 299.918 112.164ZM289.041 110.643C287.52 111.228 286 112.632 284.947 114.854C283.193 118.596 281.673 123.626 282.491 127.485C283.076 128.889 284.246 129.24 285.298 129.006C287.988 128.421 290.678 123.86 291.731 120.702C292.316 118.83 293.719 114.269 292.082 111.345C291.38 110.643 290.561 110.292 289.041 110.643Z" fill="#DF4B3E"/>
<path d="M238.632 111.696C238.632 111.696 233.018 111.696 227.871 111.696L229.977 104.21C229.977 104.21 238.515 104.21 240.035 104.21C241.556 104.21 242.959 105.614 243.076 106.433H244.363L245.883 100.351C245.883 100.351 225.415 100.468 220.971 100.234L220.737 101.287C220.854 101.403 221.088 101.52 221.322 101.637C221.439 101.988 221.205 103.509 220.971 104.21L213.836 130.526L215.825 130.76C217.345 130.409 220.854 130.409 223.778 130.877L224.012 129.708C222.959 129.123 223.544 128.421 223.661 127.836L227.17 115.439H233.018C234.538 115.439 235.942 116.842 236.058 117.661H237.345L238.632 111.696Z" fill="#DF4B3E"/>
<path d="M267.637 112.164C270.561 116.608 268.222 124.094 262.959 127.953C259.684 130.409 256.058 131.345 251.497 131.228C248.924 131.228 246.117 130.292 244.363 128.772C242.023 127.017 241.205 123.275 241.556 121.754C242.491 115.439 247.988 109.708 255.591 108.655C259.684 108.07 265.181 108.889 267.637 112.164ZM256.76 110.643C255.24 111.228 253.719 112.632 252.55 114.854C250.795 118.596 249.275 123.626 250.094 127.485C250.678 128.889 251.848 129.24 252.901 129.006C255.591 128.421 258.281 123.86 259.333 120.702C259.918 118.83 261.322 114.269 259.684 111.345C259.099 110.643 258.281 110.292 256.76 110.643Z" fill="#DF4B3E"/>
<path d="M168.339 150.409H406.117C449.626 150.409 485.064 120.936 485.064 78.8303C485.064 42.2221 456.76 9.82448 411.614 9.70752H333.602C335.941 10.0584 337.345 13.918 335.941 15.0876H406.585C452.667 15.0876 475.474 42.4561 475.474 78.5964C475.474 112.047 446.702 137.076 405.532 137.076H196.76C187.053 143.041 183.661 145.614 168.339 149.708C167.754 149.591 167.871 150.409 168.339 150.409Z" fill="#4CAF69"/>
<path d="M161.556 136.257C151.965 137.31 150.327 137.076 132.784 137.076C98.5146 137.076 65.1813 115.322 65.1813 78.9473V78.5964C65.1813 35.5555 96.1754 14.8537 132.433 14.8537H279.918C279.216 12.3976 280.62 10.2923 282.257 9.47363H130.795C85.0643 9.59059 55.3567 39.766 55.3567 78.7134C55.3567 126.667 95.8246 150.409 134.538 150.409C149.86 150.409 160.971 147.485 169.509 144.678C183.778 140 197.579 129.708 210.327 118.363C211.38 117.31 210.561 116.608 209.392 117.427C194.538 128.304 175.123 134.737 161.556 136.257Z" fill="#4CAF69"/>
<path d="M315.357 2.10519C315.357 2.10519 311.614 1.98823 311.263 6.31572C311.263 6.31572 307.637 3.04086 304.713 6.0818C303.895 7.13443 304.129 8.30402 304.48 9.35665C304.48 9.35665 311.029 19.883 302.959 31.9298C302.842 32.0467 302.842 32.1637 302.725 32.1637C301.789 33.5672 301.673 34.152 303.544 32.6315C304.947 31.5789 306.351 30.4093 306.351 30.4093C321.556 18.1286 328.807 16.2572 328.807 16.2572C329.626 16.0233 330.444 15.7894 330.912 14.9707C331.497 13.8011 330.561 12.6315 329.743 12.1637C329.743 12.1637 328.456 11.345 326.351 11.4619C326.351 11.4619 329.041 8.0701 326.117 5.38005C326.117 5.38005 323.193 3.39174 320.152 5.73092C320.152 5.96484 319.45 1.98823 315.357 2.10519Z" fill="#4CAF69"/>
<path d="M299.216 41.8713C300.737 40.9356 302.14 40.1169 303.31 39.5321C314.889 33.8011 319.45 38.4795 319.45 38.4795C323.427 41.0526 322.374 45.0292 322.374 45.0292C325.883 46.0818 328.339 44.2104 329.041 42.69C329.977 40.7017 329.626 38.9473 329.626 38.9473C335.123 39.5321 336.175 35.0876 336.175 35.0876C337.111 30.6432 332.901 29.1227 332.901 29.1227C338.398 26.3157 336.526 21.7543 333.018 21.2865C329.626 20.9356 326.351 22.4561 323.427 23.8596C319.099 26.0818 306.936 34.6198 298.632 41.4034C297.813 42.1052 298.047 42.573 299.216 41.8713Z" fill="#4CAF69"/>
</g>
<defs>
<clipPath id="clip0">
<rect width="448.655" height="160" fill="white" transform="translate(46)"/>
</clipPath>
</defs>
</svg>
