<svg width="113" height="34" viewBox="0 0 113 34" fill="none" xmlns="http://www.w3.org/2000/svg">
<g clip-path="url(#clip0)">
<path d="M77.7871 31.0756L84.9832 22.9901L77.7871 14.9034H85.3797L88.9438 18.8314L92.3758 14.9034H99.7035L92.5416 22.9567L99.8018 31.0756H92.1781L88.6463 27.1154L85.1479 31.0756H77.7871Z" fill="#FF5900"/>
<path d="M77.7869 11.2781H69.6368V14.9033H77.7869V20.3669H69.6368V25.3817H77.7869V31.0756H63.6465V5.59998H77.7869V11.2781Z" fill="#FF5900"/>
<path d="M57.6809 5.59998V16.0258H57.6152C56.2946 14.5079 54.6446 13.9804 52.7302 13.9804C48.8086 13.9804 45.8545 16.6463 44.8175 20.171C43.635 16.2873 40.5853 13.9076 36.0631 13.9076C32.3906 13.9076 29.4905 15.5561 27.9771 18.2423V14.9037H20.386V11.2789H28.67V5.59998H13.6191V31.076H20.386V20.3669H27.1307C26.9296 21.1536 26.8223 21.9958 26.8223 22.8846C26.8223 28.1988 30.882 31.9276 36.0631 31.9276C40.4199 31.9276 43.291 29.8822 44.8097 26.153H39.0107C38.2263 27.2733 37.6313 27.6061 36.0631 27.6061C34.2446 27.6061 32.6768 26.0195 32.6768 24.1388H44.4848C44.9969 28.3598 48.2848 32 52.797 32C54.7433 32 56.5253 31.0426 57.6152 29.426H57.6809V31.0752H63.646V5.59998H57.6809ZM32.8651 20.443C33.2414 18.8249 34.4964 17.7673 36.0631 17.7673C37.7877 17.7673 38.9788 18.7923 39.2921 20.443C39.4242 20.443 32.8651 20.443 32.8651 20.443ZM54.0609 27.1968C51.862 27.1968 50.4957 25.148 50.4957 23.0088C50.4957 20.7221 51.6842 18.5233 54.0609 18.5233C56.5253 18.5233 57.5072 20.7221 57.5072 23.0088C57.5068 25.1772 56.4664 27.1968 54.0609 27.1968Z" fill="#2A007C"/>
</g>
<defs>
<clipPath id="clip0">
<rect width="112.982" height="33.3" fill="white"/>
</clipPath>
</defs>
</svg>
