<svg xmlns="http://www.w3.org/2000/svg" viewBox="0 0 565.99 132.75"><defs><style>.cls-1{fill:#ec6602;}.cls-2{fill:#099;}</style></defs><g id="Layer_2" data-name="Layer 2"><g id="_Ebene_" data-name=" Ebene "><path class="cls-1" d="M546.91,77.2a11.18,11.18,0,1,0-3.28-7.91,11.18,11.18,0,0,0,3.28,7.91"/><path class="cls-1" d="M528.14,96a8.61,8.61,0,1,0-2.52-6.08A8.62,8.62,0,0,0,528.14,96"/><path class="cls-1" d="M528.16,54.81a8.63,8.63,0,1,0-2.51-6.09,8.62,8.62,0,0,0,2.51,6.09"/><path class="cls-1" d="M509,115.14a6.61,6.61,0,1,0-1.94-4.68,6.61,6.61,0,0,0,1.94,4.68"/><path class="cls-1" d="M509,74A6.61,6.61,0,1,0,507,69.31,6.63,6.63,0,0,0,509,74"/><path class="cls-1" d="M509,32.84a6.63,6.63,0,1,0-1.94-4.68A6.55,6.55,0,0,0,509,32.84"/><path class="cls-1" d="M489.47,93.5A5.09,5.09,0,1,0,488,89.9a5.11,5.11,0,0,0,1.49,3.6"/><path class="cls-1" d="M489.5,52.35a5.09,5.09,0,1,0-1.49-3.6,5.1,5.1,0,0,0,1.49,3.6"/><path class="cls-1" d="M469.74,72.1a3.91,3.91,0,1,0,0-5.53,3.9,3.9,0,0,0,0,5.53"/><path class="cls-2" d="M140.58,49V39.31a49.33,49.33,0,0,0,14.6,2.6q8.76,0,8.76-4.63a3.77,3.77,0,0,0-1.28-2.9q-1.32-1.26-6.69-3.46-9.66-4-12.59-6.77a12.5,12.5,0,0,1-3.8-9.33q0-7.24,5.53-11T159.35,0a79.45,79.45,0,0,1,14,1.78v9.3A34,34,0,0,0,160.7,8.36q-8.23,0-8.23,4.53a3.22,3.22,0,0,0,1.66,2.76q1.38.85,7.6,3.66,9,4,11.92,6.91a12.13,12.13,0,0,1,3.53,9,13.37,13.37,0,0,1-6.92,12.14q-5.59,3.38-14.52,3.38A66.76,66.76,0,0,1,140.58,49"/><path class="cls-2" d="M184.89,49.76h13.66V.85H184.89Z"/><polygon class="cls-2" points="211.08 0.85 211.08 49.77 246.68 49.77 246.68 40.42 224.25 40.42 224.25 28.81 243.28 28.81 243.28 20.75 224.25 20.75 224.25 9.7 246.12 9.7 246.12 0.85 211.08 0.85"/><polygon class="cls-2" points="298.24 0.85 285.62 32.1 273.32 0.85 255.6 0.85 255.6 49.77 265.23 49.77 265.23 15.13 279.29 50.26 287.77 50.26 302.11 15.13 302.11 49.77 315.06 49.77 315.06 0.85 298.24 0.85"/><polygon class="cls-2" points="327.59 0.85 327.59 49.77 363.2 49.77 363.2 40.42 340.76 40.42 340.76 28.81 359.8 28.81 359.8 20.75 340.76 20.75 340.76 9.7 362.63 9.7 362.63 0.85 327.59 0.85"/><polygon class="cls-2" points="404.82 0.85 404.82 33.59 388.02 0.85 372.19 0.85 372.19 49.77 381.81 49.77 381.81 16.58 399.06 49.77 414.44 49.77 414.44 0.85 404.82 0.85"/><path class="cls-2" d="M424.14,49V39.31a48.75,48.75,0,0,0,14.6,2.6q8.77,0,8.77-4.63a3.84,3.84,0,0,0-1.25-2.9q-1.31-1.26-6.72-3.46Q429.91,27,427,24.15a12.42,12.42,0,0,1-3.8-9.37q0-7.21,5.53-11T442.92,0a68.09,68.09,0,0,1,12.79,1.58l1.21.2v9.3a34.23,34.23,0,0,0-12.69-2.72q-8.19,0-8.19,4.53a3.19,3.19,0,0,0,1.65,2.76q1.31.82,7.64,3.66,8.88,4,11.88,6.91a12.13,12.13,0,0,1,3.53,9,13.39,13.39,0,0,1-6.88,12.14q-5.62,3.38-14.54,3.38A66.93,66.93,0,0,1,424.14,49"/><path class="cls-1" d="M338.32,99.85c0,5.81-7.84,7.17-13.32,7.33.25-5.82,3.29-11.47,9-11.47a4,4,0,0,1,4.29,3.57,5.42,5.42,0,0,1,0,.57m10.28-.09c0-8-5.48-12.31-14-12.31-13.83,0-21,11.3-21,23.69,0,12.65,5.74,21.59,20.07,21.59A26.63,26.63,0,0,0,349.11,128l-3.38-7.84a18.83,18.83,0,0,1-10.53,3.62c-6.41,0-9.11-4.3-9.7-8.34,10.2-.43,23.1-3,23.1-15.69"/><path class="cls-1" d="M379.21,99.85c0,5.81-7.85,7.17-13.32,7.33.25-5.82,3.28-11.47,9-11.47a4,4,0,0,1,4.29,3.57,3.62,3.62,0,0,1,0,.57m10.29-.09c0-8-5.48-12.31-14-12.31-13.83,0-21,11.3-21,23.69,0,12.65,5.73,21.59,20.06,21.59A26.66,26.66,0,0,0,390,128l-3.37-7.84a18.88,18.88,0,0,1-10.54,3.62c-6.41,0-9.1-4.3-9.7-8.34,10.2-.43,23.1-3,23.1-15.69"/><path class="cls-1" d="M75,99.85c0,5.81-7.85,7.17-13.33,7.33.25-5.82,3.29-11.47,9-11.47A4,4,0,0,1,75,99.28a3.62,3.62,0,0,1,0,.57m10.29-.09c0-8-5.48-12.31-14-12.31-13.82,0-21,11.3-21,23.69,0,12.65,5.73,21.59,20.06,21.59A26.63,26.63,0,0,0,85.82,128l-3.37-7.84a18.88,18.88,0,0,1-10.54,3.62c-6.41,0-9.1-4.3-9.7-8.34,10.2-.43,23.1-3,23.1-15.69"/><polygon class="cls-1" points="29.25 75.4 29.25 97.74 12.05 97.74 12.05 75.4 0 75.4 0 131.46 12.05 131.46 12.05 108.28 29.25 108.28 29.25 131.46 41.31 131.46 41.31 75.4 29.25 75.4"/><path class="cls-1" d="M118.28,117.81c0,3.11-2.53,6.32-6.91,6.32-6.24,0-7.68-6-7.68-12.82,0-8.26,2.37-15.17,9.28-15.17a13.92,13.92,0,0,1,5.31.92Zm12.48,13.65-.84-8.51V90.57a50.6,50.6,0,0,0-15.52-3.12c-14.92,0-22.34,9.7-22.34,24.54,0,11.38,4.13,20.65,16.35,20.65,4.56,0,8.77-1.68,11.3-5.56l.43.09.59,4.3Z"/><path class="cls-1" d="M140.54,75.48v43.25c0,7.09.67,14,12.81,14a22.38,22.38,0,0,0,10.71-2.7l-2.53-7.84a14.61,14.61,0,0,1-5.14,1.35c-3.12,0-4.13-1.86-4.13-6.49V75.48Z"/><path class="cls-1" d="M213.63,131.46V103.89a7.16,7.16,0,0,1,6.9-7.41,2.43,2.43,0,0,1,.27,0c4.47,0,5.39,3.36,5.39,7.75v27.23h11.72v-29c0-10-4.8-15-13.65-15a14.37,14.37,0,0,0-10.63,4.39V75.4H201.91v56.06Z"/><path class="cls-1" d="M248.28,131.46H260V88.72H248.28Z"/><path class="cls-1" d="M247.74,75.36a5.89,5.89,0,0,0,1.72,4.35,6.55,6.55,0,0,0,4.64,1.68,6.68,6.68,0,0,0,4.64-1.68,6.05,6.05,0,0,0,.05-8.56l-.05,0a6.59,6.59,0,0,0-4.64-1.78,6.47,6.47,0,0,0-4.61,1.78,5.9,5.9,0,0,0-1.75,4.25"/><path class="cls-1" d="M282.09,131.46v-27.4a7.29,7.29,0,0,1,7-7.58h.35c4.47,0,5.23,3.45,5.23,8.09v26.9h11.71V102.29c0-10.12-5.05-14.84-13.4-14.84a15,15,0,0,0-12.73,6.33l-.84-5.06h-9.78l.76,7.92v34.82Z"/><path class="cls-1" d="M410.32,104.91c.16-4.47,2.86-7.34,7.08-7.34a12.74,12.74,0,0,1,6,1.52L425.49,89a15.15,15.15,0,0,0-7-1.52c-4,0-8.09,2.36-10.12,7.33l-1.1-6.07h-9.52l.84,7.42v35.32h11.72Z"/><path class="cls-1" d="M457.8,91.17l0-.1a23.4,23.4,0,0,0-14-3.64c-8.66.46-15.47,5.62-15,14.54s7,11,13.39,12.56c3.67.91,6.75,1.6,6.92,4.88s-2,4.58-5.15,4.75c-3.82.2-8.63-1.5-11.74-3.1l-3.49,8c2.45,1.65,8.8,4,16.27,3.6,9.75-.51,16.14-5.65,15.64-15.16-.46-8.76-7.47-10.68-13.71-12.3-3.85-1-6.68-1.92-6.86-5.21-.14-2.78,2.07-4,4.85-4.14s6,1.11,9.27,3.42Z"/><path class="cls-1" d="M181.17,97.91h11.05V88.72H181.17V75.4H169.46V88.72H163v9.19h6.5v20.82c0,7.09.67,14,12.81,14A22.38,22.38,0,0,0,193,130l-2.53-7.84a14.6,14.6,0,0,1-5.15,1.35c-3.11,0-4.13-1.86-4.13-6.49Z"/></g></g></svg>