<svg width="491" height="160" viewBox="0 0 491 160" fill="none" xmlns="http://www.w3.org/2000/svg">
<path d="M78.4158 38.2962H60.4424C55.0733 38.2962 50.7857 33.9991 50.7857 28.6396V10.6566C50.7857 5.42158 55.0829 1 60.4424 1H78.4253C83.6604 1 88.082 5.29717 88.082 10.6566V28.6396C88.082 33.9991 83.7848 38.2962 78.4158 38.2962Z" fill="#406EB3"/>
<path d="M31.8649 78.5498H11.8721C5.8331 78.5498 1 73.5827 1 67.6777V47.4169C1 41.512 5.96709 36.5449 11.8721 36.5449H32.1328C38.1718 36.5449 43.0049 41.512 43.0049 47.4169V67.6777C42.8614 73.7167 38.0283 78.5498 31.8649 78.5498Z" fill="#632678"/>
<path d="M30.1135 120.411H17.7675C14.1403 120.411 11.1926 117.463 11.1926 113.836V101.49C11.1926 97.863 14.1403 94.9153 17.7675 94.9153H30.1135C33.7407 94.9153 36.6884 97.863 36.6884 101.49V113.836C36.6884 117.454 33.7407 120.411 30.1135 120.411Z" fill="#982881"/>
<path d="M63.1221 159.325H48.4984C44.2012 159.325 40.5836 155.832 40.5836 151.41V136.786C40.5836 132.489 44.0768 128.871 48.4984 128.871H63.1221C67.4193 128.871 71.0369 132.365 71.0369 136.786V151.41C71.0369 155.965 67.5533 159.325 63.1221 159.325Z" fill="#BA2F7D"/>
<path d="M116.525 45.6751H106.467C103.519 45.6751 101.098 43.2633 101.098 40.3061V30.2475C101.098 27.2998 103.51 24.8784 106.467 24.8784H116.525C119.473 24.8784 121.895 27.2902 121.895 30.2475V40.3061C122.163 43.1294 119.607 45.6751 116.525 45.6751Z" fill="#BA2F7D"/>
<path d="M337.776 52.384C340.992 52.384 343.547 49.7043 343.547 46.613C343.547 43.3973 340.868 40.842 337.776 40.842C334.561 40.842 331.871 43.5217 331.871 46.613C331.881 49.7043 334.427 52.384 337.776 52.384Z" fill="#26478D"/>
<path d="M125.244 114.506C124.44 115.846 122.966 116.516 121.349 116.516C120.545 116.516 119.339 116.382 118.669 115.846C117.329 115.042 116.525 113.434 116.525 111.683C116.525 110.879 116.659 110.075 117.195 109.405L130.613 88.2064L117.195 67.0078C116.659 66.3379 116.525 65.4 116.525 64.73C116.525 63.1222 117.329 61.5143 118.803 60.5668C119.607 60.0309 120.411 59.8969 121.215 59.8969C122.823 59.8969 124.297 60.5668 125.378 61.9067L136.384 79.3537L147.524 61.9067C148.328 60.5668 149.936 59.8969 151.688 59.8969C152.491 59.8969 153.295 60.0309 154.099 60.5668C155.573 61.3708 156.377 62.9786 156.377 64.73C156.377 65.5339 156.243 66.3379 155.707 67.0078L142.289 88.2064L155.707 109.405C156.243 110.075 156.377 110.879 156.377 111.683C156.377 113.291 155.573 115.176 154.233 115.846C153.429 116.382 152.491 116.516 151.554 116.516C149.946 116.516 148.606 115.846 147.658 114.506L136.518 97.1931L125.244 114.506Z" fill="#26478D"/>
<path d="M173.413 66.3378C178.514 61.7726 185.357 58.9589 192.869 58.9589C209.101 58.9589 221.983 71.9748 221.983 88.0724C221.983 104.036 208.967 117.052 192.869 117.052C185.491 117.052 178.514 114.238 173.413 109.673V134.499C173.413 136.911 171.135 139.064 168.579 139.064C166.302 139.064 163.746 136.92 163.746 134.499V64.06C163.746 61.6482 166.024 59.4949 168.579 59.4949C171.259 59.4949 173.413 61.6387 173.413 64.06V66.3378ZM192.601 68.6156C181.729 68.6156 173.145 77.2003 173.145 88.0724C173.145 98.9444 181.729 107.529 192.601 107.529C203.473 107.529 212.058 98.9444 212.058 88.0724C212.192 77.2098 203.607 68.6156 192.601 68.6156Z" fill="#26478D"/>
<path d="M304.241 82.8373V111.951C304.241 114.363 301.963 116.516 299.408 116.516C296.728 116.516 294.575 114.372 294.575 111.951V64.0505C294.575 61.6387 296.853 59.4853 299.408 59.4853C301.686 59.4853 303.973 61.4951 304.241 63.9165C308.136 60.9688 313.228 59.0834 318.731 59.0834C321.679 59.0834 323.966 61.3612 323.966 63.9165C323.966 66.5962 321.688 68.8836 318.731 68.8836C311.218 69.0176 304.241 71.5729 304.241 82.8373Z" fill="#26478D"/>
<path d="M337.776 59.4949C335.097 59.4949 332.943 61.6387 332.943 64.06V112.094C332.943 114.506 335.221 116.659 337.776 116.659C340.054 116.659 342.609 114.516 342.609 112.094V64.06C342.475 61.6387 340.198 59.4949 337.776 59.4949Z" fill="#26478D"/>
<path d="M398.827 64.06C398.827 61.6482 401.104 59.4949 403.66 59.4949C405.937 59.4949 408.493 61.6387 408.493 64.06V112.094C408.493 114.506 406.215 116.659 403.66 116.659C400.98 116.659 398.827 114.516 398.827 112.094V109.683C393.591 114.248 386.883 117.061 379.37 117.061C363.138 117.061 350.256 104.046 350.256 87.948C350.256 71.9844 363.272 58.9685 379.37 58.9685C386.749 58.9685 393.457 61.7822 398.827 66.3474V64.06ZM379.513 107.395C390.385 107.395 398.97 98.8105 398.97 87.9384C398.97 77.0663 390.385 68.4816 379.513 68.4816C368.641 68.4816 360.056 77.0663 360.056 87.9384C360.056 98.9445 368.641 107.395 379.513 107.395Z" fill="#26478D"/>
<path d="M457.197 83.3733C457.197 75.3245 450.354 68.4816 442.305 68.4816C434.524 68.4816 427.414 71.5633 427.414 82.9713V112.085C427.414 114.497 425.136 116.65 422.58 116.65C419.901 116.65 417.747 114.506 417.747 112.085V64.0505C417.747 61.6387 420.025 59.4853 422.58 59.4853C424.858 59.4853 427.146 61.4951 427.414 63.9165C431.577 60.8348 436.668 59.0834 442.171 59.0834C455.187 59.0834 466.863 69.276 466.863 82.0239V111.941C466.863 114.353 464.585 116.506 462.03 116.506C459.35 116.506 457.197 114.363 457.197 111.941V83.3733Z" fill="#26478D"/>
<path d="M113.712 86.4646C113.578 71.7069 100.428 59.2269 84.7323 59.2269C68.5007 59.2269 55.6189 72.2428 55.6189 88.2064C55.6189 104.438 68.6347 117.32 84.7323 117.32C92.5131 117.32 99.624 114.372 104.993 109.137C105.931 108.333 106.601 106.859 106.601 105.51C106.601 102.83 104.323 100.677 101.768 100.677C100.294 100.677 98.9541 101.481 98.0066 102.687C94.7909 106.18 89.9578 107.788 84.8567 107.788C75.2001 107.788 67.2757 101.213 65.6679 91.958H109.003H109.137H109.271H109.405L109.941 91.824C112.094 90.8957 113.712 88.8763 113.712 86.4646ZM84.8567 68.6156C93.5755 68.6156 100.82 74.2526 103.242 82.0334H66.2134C68.7591 74.2526 76.004 68.6156 84.8567 68.6156Z" fill="#26478D"/>
<path d="M286.66 86.4646C286.526 71.7069 273.242 59.2269 257.681 59.2269C241.449 59.2269 228.567 72.2428 228.567 88.2064C228.567 104.438 241.583 117.32 257.681 117.32C265.462 117.32 272.572 114.372 277.942 109.137C278.879 108.333 279.549 106.859 279.549 105.51C279.549 102.83 277.272 100.677 274.716 100.677C273.242 100.677 271.903 101.481 270.955 102.687C267.739 106.18 262.906 107.788 257.805 107.788C248.149 107.788 240.224 101.213 238.616 91.958H281.952H282.086H282.22H282.488H282.621C284.784 91.0297 286.66 88.8763 286.66 86.4646ZM257.681 68.6156C266.399 68.6156 273.644 74.2526 276.066 82.0334H239.171C241.574 74.2526 248.818 68.6156 257.681 68.6156Z" fill="#26478D"/>
<path d="M476.922 116.65C476.386 116.65 476.118 116.382 476.118 115.846V107.797H474.376C473.84 107.797 473.572 107.529 473.572 106.993C473.572 106.457 473.84 106.189 474.376 106.189H479.611C480.147 106.189 480.415 106.457 480.415 106.993C480.415 107.529 480.147 107.797 479.611 107.797H477.869V115.846C477.726 116.248 477.458 116.65 476.922 116.65Z" fill="#26478D"/>
<path d="M486.31 116.65C485.774 116.65 485.64 116.382 485.507 115.98L483.229 109.405V115.846C483.229 116.382 482.961 116.65 482.425 116.65C481.889 116.65 481.621 116.382 481.621 115.846V107.261C481.621 106.591 482.157 106.055 482.827 106.055C483.363 106.055 483.765 106.323 484.033 106.859L486.31 113.568L488.588 106.859C488.722 106.323 489.258 106.055 489.794 106.055C490.464 106.055 491 106.591 491 107.261V115.846C491 116.382 490.732 116.65 490.196 116.65C489.66 116.65 489.392 116.382 489.392 115.846V109.405C489.124 110.343 488.588 112.085 488.052 113.3C487.248 115.98 487.114 115.98 487.114 115.98C486.98 116.516 486.578 116.65 486.31 116.65Z" fill="#26478D"/>
</svg>
