<?xml version="1.0" encoding="utf-8"?>
<svg viewBox="1.786 0.908 412.734 133.437" xmlns="http://www.w3.org/2000/svg">
  <g id="Primary_LT" data-name="Primary LT" transform="matrix(1, 0, 0, 1, -33.133499, -34.145073)">
    <path class="cls-1" d="M160,104.61a27.64,27.64,0,0,1-4.75,1.74c-1.84.49-3.93.94-6.21,1.35a41.74,41.74,0,0,1-7.18.6A45.77,45.77,0,0,1,127.09,106a30.9,30.9,0,0,1-11.67-6.91,32.5,32.5,0,0,1-7.66-11.37A39.5,39.5,0,0,1,105,72.43a39.52,39.52,0,0,1,2.79-15.32,31.89,31.89,0,0,1,7.77-11.36,33.57,33.57,0,0,1,12-7.08,46.75,46.75,0,0,1,15.37-2.42A50.46,50.46,0,0,1,155,37.61a56.52,56.52,0,0,1,9.76,3.29,13.35,13.35,0,0,0-1.31,3.84c-.34,1.61-.6,3-.81,4l-.6.2a22.84,22.84,0,0,0-2.83-2.73A29.73,29.73,0,0,0,155,43.33a26.47,26.47,0,0,0-5.46-2.39,22.61,22.61,0,0,0-6.66-.95,30.91,30.91,0,0,0-11.07,1.92,23.81,23.81,0,0,0-8.9,5.9A27.79,27.79,0,0,0,117,57.92a44.25,44.25,0,0,0-2.13,14.51A44.3,44.3,0,0,0,117,86.94,27.58,27.58,0,0,0,122.9,97a23.57,23.57,0,0,0,8.9,5.9,30.7,30.7,0,0,0,11.07,1.93,23.82,23.82,0,0,0,6.71-.91,36,36,0,0,0,5.66-2.17,34.68,34.68,0,0,0,4.66-2.73c1.38-1,2.53-1.83,3.47-2.58l.42.41-.91,6A13.18,13.18,0,0,1,160,104.61Z" style="fill: rgb(0, 82, 138);"/>
    <path class="cls-1" d="M167,68a24.89,24.89,0,0,1,6.13-8.93,26.14,26.14,0,0,1,9.42-5.58,38.9,38.9,0,0,1,24.08,0A26.14,26.14,0,0,1,216,59.1,24.89,24.89,0,0,1,222.16,68a31.27,31.27,0,0,1,2.19,12,31.27,31.27,0,0,1-2.19,12,24.67,24.67,0,0,1-15.55,14.39,41.61,41.61,0,0,1-24.08,0A24.67,24.67,0,0,1,167,92.13a31.27,31.27,0,0,1-2.19-12A31.27,31.27,0,0,1,167,68Zm47.9.65a21.59,21.59,0,0,0-4.65-8,18.72,18.72,0,0,0-7-4.66,24.71,24.71,0,0,0-8.71-1.5,24.37,24.37,0,0,0-8.62,1.5,18.79,18.79,0,0,0-7,4.66,21.87,21.87,0,0,0-4.65,8,34.87,34.87,0,0,0-1.67,11.4,35,35,0,0,0,1.67,11.41,21.78,21.78,0,0,0,4.65,7.94,18.55,18.55,0,0,0,7,4.66,24.15,24.15,0,0,0,8.62,1.51,24.49,24.49,0,0,0,8.71-1.51,18.48,18.48,0,0,0,7-4.66,21.5,21.5,0,0,0,4.65-7.94,34.69,34.69,0,0,0,1.68-11.41A34.59,34.59,0,0,0,214.88,68.68Z" style="fill: rgb(0, 82, 138);"/>
    <path class="cls-1" d="M253.11,64.93q3.15-5.13,6.47-11.24a11.31,11.31,0,0,0,5.89,0Q260.94,60,256.56,66t-8.42,12.48q4.52,7.71,9.1,15.1t9.35,14.71a16.87,16.87,0,0,0-2.24-.16h-4.44a16.49,16.49,0,0,0-2.23.16c-2.12-3.87-4.23-7.79-6.32-11.81a128.16,128.16,0,0,0-7.2-12q-4,6-7.55,12c-2.33,4-4.61,7.94-6.84,11.81a8.32,8.32,0,0,0-1.55-.16h-2.78a8.32,8.32,0,0,0-1.55.16q4.77-6.58,9.3-13.35t9.06-13.76q-4.12-7-8.3-13.75T225.4,53.69l2.15.27a18.41,18.41,0,0,0,2.14.12,18.84,18.84,0,0,0,2.15-.12l2.14-.27c1.74,3.55,3.64,7.06,5.65,10.53s4.24,7.22,6.68,11.25C248.74,71.87,251,68.34,253.11,64.93Z" style="fill: rgb(0, 82, 138);"/>
    <path class="cls-2" d="M89.32,167.65a15,15,0,0,0-2.26-.17H82.55a14.94,14.94,0,0,0-2.25.17q-.6-2-1.63-4.73c-.68-1.84-1.44-3.77-2.26-5.8L73.9,151c-.85-2.07-1.65-4-2.38-5.92C69.7,145,67.85,145,66,145s-3.75,0-5.63,0-3.5,0-5.2,0-3.44.06-5.19.12c-1.82,4.43-3.48,8.65-5,12.66s-2.59,7.31-3.33,9.92a25.53,25.53,0,0,0-3.14-.17,25.65,25.65,0,0,0-3.16.17q6.9-14.9,13.47-29.65t13.21-30h1.61c1.37,3.29,2.84,6.86,4.44,10.69s3.21,7.72,4.85,11.64,3.29,7.8,5,11.68,3.19,7.45,4.64,10.77,2.76,6.3,3.92,8.9S88.59,166.29,89.32,167.65Zm-37.75-26.5c1.48,0,3,0,4.6.07s3.13.09,4.61.09l4.77,0,4.78-.14-9.47-21.64Z" style="fill: rgb(128, 130, 133);"/>
    <path class="cls-2" d="M124.46,127.83a69,69,0,0,0-.34-7.11c.49.09,1,.16,1.41.23a8.54,8.54,0,0,0,1.34.1,7,7,0,0,0,2-.33c-.13,1.57-.27,3.43-.4,5.6s-.25,4.49-.33,7-.19,5-.28,7.65-.16,5.14-.2,7.6a24.18,24.18,0,0,1-1.37,8.05,16.78,16.78,0,0,1-3.72,6,15.57,15.57,0,0,1-5.94,3.76,23.57,23.57,0,0,1-8.07,1.27q-10.06,0-14.62-4.55t-4.56-14.42c0-2.1.06-4,.17-5.6s.17-3.29.17-5q0-5.62-.14-10t-.27-7.38c.54.09,1.12.16,1.75.23a15.63,15.63,0,0,0,1.74.1,9.77,9.77,0,0,0,1.44-.1c.47-.07,1-.14,1.44-.23-.09,1-.18,2.27-.26,3.85s-.18,3.39-.27,5.4-.16,4.19-.2,6.5-.07,4.74-.07,7.25c0,1.51,0,3.1.07,4.72a32.26,32.26,0,0,0,.47,4.77,19.07,19.07,0,0,0,1.3,4.42,10.81,10.81,0,0,0,2.58,3.68,11.74,11.74,0,0,0,4.23,2.49,19.05,19.05,0,0,0,6.3.9,15.7,15.7,0,0,0,6.2-1.07,11.77,11.77,0,0,0,4.13-2.82,12.81,12.81,0,0,0,2.51-4A23.75,23.75,0,0,0,124,152a39.44,39.44,0,0,0,.47-5q.06-2.48.06-4.56Q124.52,133,124.46,127.83Z" style="fill: rgb(128, 130, 133);"/>
    <path class="cls-2" d="M146.22,125.08l-3.65,0c-1.28,0-2.56.08-3.83.15s-2.5.14-3.69.22-2.25.22-3.18.34a8.27,8.27,0,0,0,.34-2.14,9.6,9.6,0,0,0-.34-2.08q4.42.14,8.65.23c2.81.08,5.7.11,8.64.11s5.84,0,8.66-.11,5.69-.14,8.64-.23a9.54,9.54,0,0,0-.33,2.15,8,8,0,0,0,.33,2.07c-.93-.12-2-.24-3.18-.34s-2.41-.17-3.68-.22-2.55-.11-3.82-.15l-3.67,0q-.2,6.9-.19,13.88v11.53c0,2.95.05,5.86.16,8.71s.24,5.68.37,8.45c-1-.09-2.13-.14-3.29-.14s-2.25.05-3.28.14c.14-2.77.26-5.58.37-8.45s.17-5.76.17-8.71V139Q146.42,132,146.22,125.08Z" style="fill: rgb(128, 130, 133);"/>
    <path class="cls-2" d="M166.8,133.69a21.15,21.15,0,0,1,5.16-7.53,22.13,22.13,0,0,1,7.95-4.7,32.67,32.67,0,0,1,20.32,0,22,22,0,0,1,7.94,4.7,21.17,21.17,0,0,1,5.17,7.53,29.12,29.12,0,0,1,0,20.32,20.77,20.77,0,0,1-13.11,12.14,35.16,35.16,0,0,1-20.32,0A20.71,20.71,0,0,1,166.8,154a29,29,0,0,1,0-20.32Zm40.39.54a18.08,18.08,0,0,0-3.92-6.7,15.58,15.58,0,0,0-5.89-3.93,20.71,20.71,0,0,0-7.35-1.27,20.43,20.43,0,0,0-7.27,1.27,15.53,15.53,0,0,0-5.9,3.93,18.08,18.08,0,0,0-3.92,6.7,33.56,33.56,0,0,0,0,19.25,18,18,0,0,0,3.92,6.69,15.65,15.65,0,0,0,5.9,3.93,20.43,20.43,0,0,0,7.27,1.27,20.71,20.71,0,0,0,7.35-1.27,15.69,15.69,0,0,0,5.89-3.93,18,18,0,0,0,3.92-6.69,33.56,33.56,0,0,0,0-19.25Z" style="fill: rgb(128, 130, 133);"/>
    <path class="cls-2" d="M234.14,139.23q4.74,9,9.9,18.43c.44-.85,1.09-2.06,1.94-3.65s1.83-3.41,3-5.47,2.31-4.27,3.59-6.67,2.56-4.81,3.89-7.27,2.62-4.88,3.92-7.25l3.62-6.63h.88q.72,6.44,1.36,12.44T267.5,145q.67,5.81,1.34,11.47c.44,3.77,1,7.52,1.48,11.22a9.46,9.46,0,0,0-1.58-.14H265.6a9.46,9.46,0,0,0-1.58.14q-.74-8.93-1.49-17.29t-1.8-17.1h-.14q-4.62,8.46-9.08,16.8T243,167.51h-.6q-4-8.43-8.42-16.92t-8.82-17.33h-.13c-.31,2.77-.66,5.78-1,9s-.73,6.44-1,9.6-.59,6.12-.82,8.91-.32,5.08-.32,6.87a19,19,0,0,0-2.35-.14,18.8,18.8,0,0,0-2.35.14q.87-5.42,1.81-11.46t1.81-12.14q.87-6.11,1.61-12t1.28-11.3h1.14Q229.42,130.25,234.14,139.23Z" style="fill: rgb(128, 130, 133);"/>
    <path class="cls-2" d="M274.42,133.69a21.15,21.15,0,0,1,5.16-7.53,22,22,0,0,1,7.95-4.7,32.64,32.64,0,0,1,20.31,0,22.13,22.13,0,0,1,8,4.7,21.15,21.15,0,0,1,5.16,7.53A29.12,29.12,0,0,1,321,154a20.71,20.71,0,0,1-13.11,12.14,35.12,35.12,0,0,1-20.31,0A20.71,20.71,0,0,1,274.42,154a28.82,28.82,0,0,1,0-20.32Zm40.4.54a18.39,18.39,0,0,0-3.94-6.7A15.5,15.5,0,0,0,305,123.6a20.66,20.66,0,0,0-7.34-1.27,20.39,20.39,0,0,0-7.27,1.27,15.65,15.65,0,0,0-5.91,3.93,18.36,18.36,0,0,0-3.92,6.7,33.56,33.56,0,0,0,0,19.25,18.31,18.31,0,0,0,3.92,6.69,15.77,15.77,0,0,0,5.91,3.93,20.39,20.39,0,0,0,7.27,1.27A20.66,20.66,0,0,0,305,164.1a15.61,15.61,0,0,0,5.89-3.93,18.34,18.34,0,0,0,3.94-6.69,33.79,33.79,0,0,0,0-19.25Z" style="fill: rgb(128, 130, 133);"/>
    <path class="cls-2" d="M336.22,125.08l-3.64,0c-1.28,0-2.56.08-3.83.15s-2.5.14-3.69.22-2.24.22-3.18.34a8.27,8.27,0,0,0,.34-2.14,9.6,9.6,0,0,0-.34-2.08q4.42.14,8.65.23c2.81.08,5.69.11,8.64.11s5.84,0,8.66-.11,5.69-.14,8.65-.23a9.78,9.78,0,0,0-.35,2.15,8.12,8.12,0,0,0,.35,2.07c-.94-.12-2-.24-3.19-.34s-2.41-.17-3.69-.22-2.55-.11-3.82-.15l-3.65,0q-.21,6.9-.21,13.88v11.53c0,2.95.06,5.86.17,8.71s.24,5.68.37,8.45c-1-.09-2.12-.14-3.29-.14s-2.25.05-3.28.14c.13-2.77.25-5.58.37-8.45s.17-5.76.17-8.71V139Q336.43,132,336.22,125.08Z" style="fill: rgb(128, 130, 133);"/>
    <path class="cls-2" d="M362.54,130.28q-.17-4.26-.37-8.69c.59.09,1.15.17,1.68.23a10.8,10.8,0,0,0,1.61.11,11,11,0,0,0,1.61-.11c.53-.06,1.09-.14,1.68-.23q-.21,4.43-.37,8.69c-.12,2.83-.17,5.73-.17,8.68v11.53c0,2.95.05,5.86.17,8.71s.23,5.68.37,8.45c-1-.09-2.14-.14-3.29-.14s-2.26.05-3.29.14c.14-2.77.26-5.58.37-8.45s.17-5.76.17-8.71V139C362.71,136,362.65,133.11,362.54,130.28Z" style="fill: rgb(128, 130, 133);"/>
    <path class="cls-2" d="M389.19,158.13q-2.2-5.56-4.72-11.73t-5.17-12.61q-2.64-6.43-5.06-12.2c.62.09,1.23.17,1.81.23a12.81,12.81,0,0,0,3.35,0c.59-.06,1.19-.14,1.81-.23,1,3,2.08,6,3.26,9.28s2.43,6.55,3.75,9.89,2.67,6.75,4.06,10.2,2.79,6.86,4.22,10.25c.8-1.83,1.68-3.87,2.62-6.13s1.89-4.6,2.85-7,1.91-4.91,2.84-7.44,1.85-4.95,2.73-7.27,1.66-4.5,2.37-6.51,1.32-3.75,1.81-5.23a11.24,11.24,0,0,0,2.48.34,11.09,11.09,0,0,0,2.48-.34q-5.22,11.66-10.05,23.14t-9.26,22.92a17.71,17.71,0,0,0-2.21-.14,14.71,14.71,0,0,0-2.21.14Q391.41,163.71,389.19,158.13Z" style="fill: rgb(128, 130, 133);"/>
    <path class="cls-2" d="M422.55,130.17q-.17-4.29-.37-8.58,3,.14,6,.23c2,.08,4,.11,6,.11s4,0,6-.11,4-.14,6-.23a10.73,10.73,0,0,0,0,4c-1.42-.08-2.73-.17-3.91-.26l-3.76-.27c-1.32-.09-2.77-.17-4.32-.23s-3.44-.11-5.64-.11c0,1.43-.1,2.79-.17,4.09s-.1,2.77-.1,4.43,0,3.44,0,5.09,0,2.91,0,3.76c2,0,3.74,0,5.3-.07s3-.1,4.29-.17,2.5-.13,3.58-.2,2.14-.14,3.12-.23a10.84,10.84,0,0,0-.2,2.07,10.3,10.3,0,0,0,.2,2c-1.16-.13-2.51-.24-4-.33s-3.1-.14-4.64-.17-3,0-4.36-.06l-3.25,0c0,.4,0,.83,0,1.3s0,1.07,0,1.78v6.64c0,2.54,0,4.65,0,6.3s.05,2.91.1,3.75H433c1.7,0,3.37,0,5-.09s3.18-.16,4.63-.28a28.54,28.54,0,0,0,3.79-.5,5.38,5.38,0,0,0-.17,1c0,.38,0,.73,0,1a6.33,6.33,0,0,0,.2,1.75q-3-.14-6-.14H428.28q-3,0-6.1.14.21-4.29.37-8.54c.11-2.85.17-5.73.17-8.69V138.9C422.72,135.94,422.66,133,422.55,130.17Z" style="fill: rgb(128, 130, 133);"/>
  </g>
</svg>