<?xml version="1.0" encoding="utf-8"?>
<!-- Generator: Adobe Illustrator 26.0.2, SVG Export Plug-In . SVG Version: 6.00 Build 0)  -->
<svg version="1.1" id="Layer_1" xmlns="http://www.w3.org/2000/svg" xmlns:xlink="http://www.w3.org/1999/xlink" x="0px" y="0px"
	 viewBox="0 0 786.2 160" style="enable-background:new 0 0 786.2 160;" xml:space="preserve">
<style type="text/css">
	.st0{fill:#231F20;}
	.st1{fill:#D92231;}
</style>
<g>
	<g>
		<path class="st0" d="M751.3,5.9h-5.4V2.7h14.2v3.2h-5.4v17.5h-3.5V5.9z M763.4,2.7h5.9l5.2,17.5h0.3l5.2-17.5h5.9v20.7h-3.3V5.9
			h-0.3l-5.2,17.5h-4.7l-5.2-17.5h-0.3v17.5h-3.3V2.7z"/>
	</g>
	<g>
		<path class="st1" d="M538.4,79.9c0-26.9-10.3-50.7-37.9-50.7c-27.6,0-38.2,23.8-38.2,50.7c0,26.9,10.6,50.7,38.2,50.7
			C528,130.6,538.4,106.8,538.4,79.9 M579,79.9c0,46-32.5,79.9-78.5,79.9c-46.9,0-78.7-32.6-78.7-79.9c0-44.8,31.4-80,78.7-80
			C546.5,0,579,34,579,79.9"/>
		<path class="st1" d="M265.6,65.1h-71.2c0.8-5.2,2.2-10,4.5-14.7c6.4-12.8,18.4-21,33.5-21c20.6,0,33.2,14,33.2,34.8V65.1z
			 M302.6,65.7c-1.9-20.8-9.5-37.5-22.3-48.8C268,6,251.5,0.1,231.1,0.1c-15,0-34.1,5.2-48.1,16.7c-16.7,13.7-29.6,35.2-29.6,64.1
			c0,24.9,8.1,45,22.7,58.6c14.2,13.3,34.4,20.6,59.4,20.6c20.1,0,44.5-7.6,54.8-14c3.7-2.2,4.8-3.2,3.9-6.9l-6.5-18.5
			c-0.7-3-4.1-3.8-6.8-2.4c-4.6,2.2-8,4-12.6,5.7c-9,3.3-18.4,5.6-27.2,5.6c-18.7,0-29.4-5.1-37.5-14.5c-5.2-6-8.2-13.5-9.1-22.2
			h103.2c3.7,0,5.4-2.6,5.4-7v-7.4C303,74.8,302.9,69.2,302.6,65.7"/>
		<path class="st1" d="M339.7,22.1c11.7-15,29.9-21.9,59.7-21.9c7,0,15.6,0.9,21,2.1c3.5,0.8,4.1,3.6,3.4,7.2l-3.5,17.4
			c-0.8,3.2-1.7,4.2-4.3,4.2c-0.4,0-1.2,0-2.1-0.2c-2.5-0.3-9.5-1.1-12.4-1.1c-14.8,0-21.9,3.7-27.2,9.3c-6.2,6.6-6.3,16.3-6.3,33.7
			V150c0,5.1-2.2,7.9-7.7,7.9h-23.6c-5,0-7.2-2.5-7.6-7.9V74.2C329.1,46.6,330.7,33.6,339.7,22.1"/>
		<path class="st1" d="M659.4,54.2c5.3-5.5,17.6-20.7,31.2-46.4c2.3-4.4,4.4-5.5,7.5-5.5h25.3c2.3,0,5,1.1,3.6,5.5
			c-10.1,29.8-33,56-45.7,69.6c13.8,13.1,38.4,44.2,50,74.6c1,2.7,0.5,5.9-5.2,5.9h-30.3c-3.1,0-5.6-0.3-7.7-5.5
			c-7.5-18.7-19.2-38.3-32.6-51.2c-14.7,15.6-25.8,34.7-33.3,51.2c-1.9,4.1-3.7,5.5-7.7,5.5h-27.8c-1.9,0-3.8-2.2-2.5-5.5
			c8.3-22.7,24.7-50.9,48.3-72.1C613.7,58,595.9,30.8,588.9,7.8c-1.1-3.4,0.8-5.5,3.4-5.5h32.6c3.6,0,5.4,1.5,7.1,5.5
			C640.1,26.5,651,44.3,659.4,54.2"/>
		<path class="st1" d="M75.5,54.2c5.3-5.5,17.5-20.7,31.2-46.4c2.3-4.4,4.3-5.5,7.4-5.5h25.3c2.3,0,5,1.1,3.5,5.5
			c-10.1,29.8-33,56-45.7,69.6c13.9,13.1,38.4,44.2,50.1,74.6c1,2.7,0.5,5.9-5.4,5.9h-30.3c-3.1,0-5.5-0.3-7.6-5.5
			c-7.5-18.7-19.3-38.3-32.6-51.2c-14.7,15.5-25.8,34.7-33.3,51.2c-1.8,4.1-3.6,5.5-7.6,5.5H2.7c-1.9,0-3.8-2.2-2.6-5.5
			c8.3-22.7,24.7-50.9,48.2-72.1C30,58,12.1,30.8,5.1,7.8C4.1,4.4,5.9,2.3,8.5,2.3h32.6c3.5,0,5.4,1.5,7.2,5.5
			C56.2,26.5,67.2,44.3,75.5,54.2"/>
	</g>
</g>
</svg>
